<svg
  width="100"
  height="100"
  viewBox="0 0 100 100"
  fill="none"
  xmlns="http://www.w3.org/2000/svg"
>
  <path
    d="M65.3056 63.6593C68.3553 63.6593 71.4813 62.507 74.5309 60.4494C77.5806 58.4741 79.977 56.2107 81.8728 53.4123C83.8353 50.502 84.84 47.9803 84.84 45.758C84.84 44.3588 84.3867 43.2066 83.48 42.3012C82.7382 42.1366 81.2958 42.6716 79.1528 43.9062C77.0098 45.0584 74.7019 46.6222 72.2292 48.5975C69.8389 50.4905 67.6959 52.4658 65.8001 54.5235C64.1517 59.544 63.4923 62.5481 63.822 63.5358L65.3056 63.6593Z"
    fill="#d9d9d9"
  />
  <path
    d="M0 50C0 22.3858 22.3858 0 50 0C62.4036 0 73.7524 4.51652 82.4914 11.9947C81.8273 12.751 80.0393 16.4899 79.2169 18.1727L77.7928 21.437C77.2983 22.507 76.8037 23.4946 76.3092 24.4L75.5674 25.6346C75.4025 26.0461 75.2377 26.4165 75.0728 26.7457C73.4243 30.1202 72.0231 33.0008 70.8692 35.3877C69.7153 37.6922 68.8086 39.544 68.1492 40.9432L61.9201 53.9062C60.9784 54.4 57.7165 55.758 56.851 55.8815C56.6514 55.8815 56.3779 55.9351 56.0793 55.9937C55.6382 56.0802 55.1424 56.1775 54.7492 56.1284C54.1723 56.0461 53.5541 55.8815 52.8947 55.6346C52.3177 55.3876 52.0293 54.8938 52.0293 54.1531C52.0293 53.0008 52.5238 51.437 53.5129 49.4617C53.925 48.4741 54.3783 47.1572 54.8729 45.5111C55.4498 43.7827 55.9032 42.2601 56.2329 40.9432C56.4801 40.1202 56.3153 39.4617 55.7383 38.9679C55.2438 38.4741 54.6256 38.2272 53.8838 38.2272C53.719 38.2272 53.5129 38.2683 53.2656 38.3506C53.1008 38.3506 52.8947 38.3918 52.6474 38.4741C50.6693 39.0502 48.8972 40.1202 47.3311 41.684C45.765 43.2477 43.5396 45.7169 40.6548 49.0914L37.193 53.1654C36.7808 53.577 36.4512 53.7827 36.2039 53.7827C35.6269 53.7827 35.1736 53.4123 34.8439 52.6716C34.5966 51.8486 34.473 50.9021 34.473 49.8321V48.9679C34.5554 48.6387 34.5966 48.3095 34.5966 47.9803V44.8938C34.5966 43.0831 34.3906 41.972 33.9784 41.5605C33.0718 40.7374 32.2887 40.3259 31.6294 40.3259C30.8875 40.3259 30.1045 40.614 29.2803 41.1901C28.8682 41.5193 28.3324 41.9309 27.673 42.4247C27.0136 42.9185 26.2718 43.5358 25.4476 44.2765L17.9058 51.1901C16.8343 52.0955 15.8864 52.7951 15.0621 53.2889C14.2379 53.7827 13.3312 54.2766 12.3422 54.7704L12.0949 54.2765V53.7827C12.0949 52.2189 12.9603 49.8321 14.6912 46.6222C15.5979 45.0584 16.587 43.4947 17.6585 41.9309C18.73 40.3671 19.5955 39.256 20.2548 38.5975C20.4197 38.4329 20.5021 38.0214 20.5021 37.363C20.5021 36.7045 20.3785 36.1284 20.1312 35.6346C19.8839 35.0584 19.5542 34.7704 19.1421 34.7704C18.4827 34.7704 17.5761 35.47 16.4221 36.8691C15.3506 38.1037 14.2379 39.9144 13.084 42.3012C11.93 44.6058 10.4876 47.6922 8.75672 51.5605C7.39088 54.8186 6.86332 55.8097 6.20937 57.0382C6.15297 57.1442 6.09564 57.2519 6.03674 57.363C5.89545 57.6451 5.67678 58.055 5.42687 58.5234C4.80208 59.6943 3.98204 61.2313 3.68767 62.0543C3.61979 62.2916 3.30353 62.8969 2.84056 63.783C2.66606 64.117 2.4665 64.4847 2.25577 64.8938C0.789826 60.1894 0 55.187 0 50Z"
    fill="#d9d9d9"
  />
  <path
    d="M50 100C77.6142 100 100 77.6142 100 50C100 36.9859 95.028 25.1331 86.8799 16.2376C86.8504 16.2807 86.8191 16.3241 86.7877 16.3676L86.7871 16.3684C86.7558 16.4117 86.7244 16.4551 86.6946 16.4988C82.1613 23.0008 78.2874 28.8856 75.0728 34.1531C71.9407 39.4206 69.3032 44.7292 67.1601 50.079C69.2207 48.2683 71.405 46.4576 73.7128 44.6469C76.1031 42.8362 78.1225 41.437 79.771 40.4494C82.0788 39.1325 84.0982 38.4741 85.8291 38.4741C88.4667 38.4741 89.7855 40.2025 89.7855 43.6593C89.7855 47.4453 88.6728 50.9021 86.4473 54.0296C84.2219 57.0749 81.131 59.7498 77.1746 62.0543C73.3007 64.2765 68.891 66.0872 63.9456 67.4864C62.8741 67.8979 61.885 68.1037 60.9784 68.1037C59.0826 68.1037 58.1347 67.0749 58.1347 65.0173C58.1347 63.4535 58.5468 61.8074 59.3711 60.079L60.8495 56.8562C60.6356 57.1125 60.1219 57.339 59.5275 57.6011C58.9763 57.8441 58.3556 58.1177 57.8401 58.4741C56.7686 59.2148 55.5735 59.8733 54.2547 60.4494C53.0184 60.9432 51.9056 61.1901 50.9165 61.1901C48.8559 61.1901 47.8256 60.079 47.8256 57.8568C47.8256 56.7045 47.9905 55.6346 48.3202 54.6469C49.4741 50.4494 50.0511 47.7333 50.0511 46.4988C50.0511 45.2642 49.7214 44.6469 49.062 44.6469C47.5784 44.6469 44.4051 47.6099 39.542 53.5358C39.0475 54.1119 38.4705 54.7292 37.8111 55.3877C37.2342 56.0461 36.5748 56.7045 35.833 57.363C34.8439 58.2683 33.896 59.2148 32.9894 60.2025C32.4948 60.6963 31.8354 60.9432 31.0112 60.9432C29.2803 60.9432 28.3324 60.3259 28.1676 59.0914C28.0851 57.7745 28.0027 56.7045 27.9203 55.8815V54.0296C27.7554 51.8897 27.6318 50.4494 27.5494 49.7086C27.4669 48.9679 27.096 48.5975 26.4366 48.5975C25.6124 48.5975 23.5518 49.9144 20.2548 52.5482C18.8543 53.6618 17.3 54.7805 15.8372 55.8333C14.6508 56.6872 13.5246 57.4977 12.5894 58.2272C11.0133 59.4565 10.352 60.1781 8.75672 62.0543C6.93469 64.1972 5.27636 66.6512 3.8 69.1304L3.85138 69.2771C11.3976 87.3213 29.2182 100 50 100Z"
    fill="#d9d9d9"
  />
</svg>
