<svg
  width="379"
  height="84"
  viewBox="0 0 379 84"
  fill="none"
  xmlns="http://www.w3.org/2000/svg"
>
  <path
    d="M0.859822 61.7143C0.286607 61.7143 0 61.2245 0 60.2449C0 59.4286 0.163776 58.449 0.491327 57.3061C0.900766 56.1633 1.35115 55.102 1.84248 54.1224C2.57947 52.7347 3.68495 50.2857 5.15893 46.7755C6.87857 42.9388 8.31161 39.8776 9.45804 37.5918C10.6045 35.2245 11.71 33.4286 12.7745 32.2041C13.9209 30.8163 14.8217 30.1224 15.4768 30.1224C15.8862 30.1224 16.2138 30.4082 16.4594 30.9796C16.7051 31.4694 16.8279 32.0408 16.8279 32.6939C16.8279 33.3469 16.7461 33.7551 16.5823 33.9184C15.9272 34.5714 15.0674 35.6735 14.0028 37.2245C12.9383 38.7755 11.9556 40.3265 11.0549 41.8776C9.33521 45.0612 8.47539 47.4286 8.47539 48.9796C8.47539 49.1429 8.47539 49.3061 8.47539 49.4694C8.55727 49.6327 8.63916 49.7959 8.72105 49.9592C9.7037 49.4694 10.6045 48.9796 11.4233 48.4898C12.2422 48 13.1839 47.3061 14.2485 46.4082L21.7412 39.551C22.5601 38.8163 23.2971 38.2041 23.9522 37.7143C24.6073 37.2245 25.1395 36.8163 25.549 36.4898C26.3679 35.9184 27.1458 35.6327 27.8828 35.6327C28.5379 35.6327 29.3158 36.0408 30.2166 36.8571C30.626 37.2653 30.8308 38.3673 30.8308 40.1633V43.2245C30.8308 43.551 30.7898 43.8775 30.7079 44.2041C30.7079 44.449 30.7079 44.7347 30.7079 45.0612C30.7079 46.1224 30.8308 47.0612 31.0764 47.8776C31.404 48.6122 31.8544 48.9796 32.4276 48.9796C32.6732 48.9796 33.0008 48.7755 33.4102 48.3673L36.8495 44.3265C39.7156 40.9796 41.9265 38.5306 43.4824 36.9796C45.0383 35.4286 46.7989 34.3673 48.7642 33.7959C49.0098 33.7143 49.2146 33.6735 49.3783 33.6735C49.624 33.5918 49.8287 33.551 49.9925 33.551C50.7295 33.551 51.3436 33.7959 51.835 34.2857C52.4082 34.7755 52.572 35.4286 52.3263 36.2449C51.9987 37.551 51.5484 39.0612 50.9751 40.7755C50.4838 42.4082 50.0334 43.7143 49.624 44.6939C48.6413 46.6531 48.15 48.2041 48.15 49.3469C48.15 50.0816 48.4366 50.5714 49.0098 50.8163C49.6649 51.0612 50.2791 51.2245 50.8523 51.3061C51.5074 51.3878 51.835 51.551 51.835 51.7959C53.4727 51.2245 54.701 50.9388 55.5199 50.9388C56.3388 50.9388 56.5435 51.2245 56.1341 51.7959C55.7246 52.2857 54.9876 52.898 53.9231 53.6327C52.8586 54.3673 51.6712 55.0204 50.361 55.5918C49.1327 56.0816 48.0272 56.3265 47.0445 56.3265C44.9973 56.3265 43.9737 55.2245 43.9737 53.0204C43.9737 51.8776 44.1375 50.8163 44.4651 49.8367C45.6115 45.6735 46.1847 42.9796 46.1847 41.7551C46.1847 40.5306 45.8572 39.9184 45.2021 39.9184C43.7281 39.9184 40.5754 42.8571 35.744 48.7347C35.2527 49.3061 34.6795 49.9184 34.0244 50.5714C33.4512 51.2245 32.7961 51.8776 32.0591 52.5306C31.0764 53.4286 30.1347 54.3673 29.2339 55.3469C28.7426 55.8367 28.0875 56.0816 27.2686 56.0816C25.549 56.0816 24.6073 55.4694 24.4435 54.2449C24.3616 52.9388 24.2797 51.8775 24.1978 51.0612C24.1978 50.1633 24.1978 49.551 24.1978 49.2245C24.0341 47.102 23.9112 45.6735 23.8293 44.9388C23.7475 44.2041 23.379 43.8367 22.7239 43.8367C21.905 43.8367 19.8578 45.1429 16.5823 47.7551C12.1603 51.2653 8.10689 55.1837 4.42194 59.5102C2.86607 60.9796 1.6787 61.7143 0.859822 61.7143Z"
    fill="#d9d9d9"
  />
  <path
    d="M69.4469 30.8571C68.3824 30.8571 67.8501 30.6122 67.8501 30.1224C67.8501 29.7143 68.1367 29.1429 68.7099 28.4082C69.365 27.5918 70.102 26.898 70.9209 26.3265C72.7224 25.1837 74.1145 24.2041 75.0972 23.3878C76.1617 22.5714 77.431 21.1837 78.905 19.2245C78.9868 19.3878 79.0278 19.7143 79.0278 20.2041C79.0278 21.2653 78.5774 22.5714 77.6766 24.1224C76.8578 25.5918 75.9161 26.9388 74.8515 28.1633C73.787 29.3878 72.8453 30.1633 72.0264 30.4898C71.2894 30.7347 70.4296 30.8571 69.4469 30.8571ZM58.5149 60.8571C57.8598 60.8571 57.2456 60.6122 56.6724 60.1224C56.0992 59.6327 55.8126 58.9796 55.8126 58.1633C55.8126 56.449 57 53.3061 59.3747 48.7347L60.7259 46.0408C60.8896 45.8776 61.0944 45.4694 61.34 44.8163C61.6676 44.1633 62.118 43.3061 62.6912 42.2449C63.2644 41.102 63.7148 40.0816 64.0423 39.1837C64.3699 38.2857 64.6155 37.4286 64.7793 36.6122C64.7793 36.5306 64.9431 36.3673 65.2706 36.1224C65.5982 35.8775 65.9257 35.6735 66.2533 35.5102L66.9903 35.3878C67.6454 35.3878 68.1777 35.5102 68.5871 35.7551C69.0784 36 69.2422 36.3265 69.0784 36.7347C68.5052 37.9592 68.0139 39.0204 67.6044 39.9184C67.195 40.8163 66.8675 41.5918 66.6218 42.2449H66.499C65.5982 44.2857 64.8203 46.2449 64.1652 48.1224C63.5919 49.9184 63.3463 51.6327 63.4282 53.2653L63.551 56.5714C63.4691 57.3878 63.1825 58.0816 62.6912 58.6531C62.3636 58.898 61.9132 59.1837 61.34 59.5102C60.7668 59.9184 60.0298 60.3265 59.1291 60.7347C59.0472 60.8163 58.8424 60.8571 58.5149 60.8571Z"
    fill="#d9d9d9"
  />
  <path
    d="M69.9843 84C68.1828 84 66.7088 83.1429 65.5624 81.4286C64.3341 79.7959 63.7199 77.9184 63.7199 75.7959C63.7199 74.0816 63.9656 72.8163 64.4569 72C65.112 71.102 65.7261 70.6531 66.2994 70.6531C66.9545 70.6531 67.282 71.0204 67.282 71.7551C67.282 72.4082 67.0363 73.0612 66.545 73.7143C66.2175 74.1225 66.0537 74.6531 66.0537 75.3061C66.0537 76.5306 66.4631 77.7551 67.282 78.9796C68.1009 80.2041 69.0835 80.8163 70.23 80.8163C70.3937 80.8163 70.5575 80.7755 70.7213 80.6939C70.8851 80.6939 71.0898 80.6531 71.3355 80.5714C75.1842 79.102 78.7054 76.0408 81.899 71.3878C85.0926 66.6531 87.713 61.4694 89.7602 55.8367C91.8074 50.1224 93.3223 44.8571 94.305 40.0408L93.8137 39.9184C93.568 39.7551 93.1995 39.9592 92.7082 40.5306C92.2168 41.0204 91.7255 41.5918 91.2342 42.2449C90.7429 42.8163 90.4153 43.2245 90.2515 43.4694C90.0059 43.7959 89.3508 44.5306 88.2862 45.6735C87.3036 46.7347 86.1162 47.9592 84.7241 49.3469C83.332 50.6531 81.9399 51.9592 80.5478 53.2653C79.1557 54.5714 77.9684 55.6327 76.9857 56.449C75.7574 57.5102 74.2425 58.0408 72.4409 58.0408C71.9496 58.0408 71.4583 57.9592 70.967 57.7959C70.0662 57.3061 69.6158 56.5306 69.6158 55.4694C69.6158 54.0816 70.4347 51.9592 72.0724 49.102C73.3008 46.9796 75.1432 44.3265 77.5999 41.1429C80.0565 37.8776 82.7588 35.102 85.7068 32.8163C87.8358 31.102 90.0468 30 92.3397 29.5102C92.7491 29.4286 93.1585 29.3878 93.568 29.3878C93.9774 29.3061 94.3869 29.2245 94.7963 29.1429C95.2057 29.1429 95.5742 29.1429 95.9018 29.1429C96.2293 29.1429 96.5569 29.102 96.8844 29.0204C96.9663 29.0204 97.5805 28.9796 98.7269 28.898C99.9552 28.7347 100.733 28.3265 101.061 27.6735L101.429 27.551C101.757 27.551 102.084 27.7143 102.412 28.0408C102.658 28.2857 102.78 28.7755 102.78 29.5102C102.78 29.7551 102.739 30.0816 102.658 30.4898C102.576 30.8163 102.535 31.2245 102.535 31.7143V31.8367C102.535 34.8571 101.961 38 100.815 41.2653C99.6686 44.449 98.4403 47.7143 97.1301 51.0612C94.4278 57.8367 90.9885 64.1224 86.8122 69.9184C82.7179 75.7143 78.1731 80.0816 73.1779 83.0204C72.1134 83.6735 71.0488 84 69.9843 84ZM73.6693 53.6327C73.9968 53.7959 74.2425 53.8776 74.4062 53.8776C74.8157 53.8776 75.4298 53.6735 76.2487 53.2653C76.8219 52.9388 77.3951 52.5306 77.9684 52.0408C78.6235 51.551 79.3605 50.9796 80.1793 50.3265C80.7526 49.9184 81.4076 49.3469 82.1446 48.6122C82.8816 47.8775 83.7415 47.0204 84.7241 46.0408L87.0579 43.8367C88.2043 42.6939 89.4327 41.3469 90.7429 39.7959C92.0531 38.2449 93.1585 36.7347 94.0593 35.2653C94.9601 33.7959 95.4105 32.6531 95.4105 31.8367C95.4105 31.102 94.9601 30.7347 94.0593 30.7347C93.1585 30.7347 91.9302 31.2245 90.3744 32.2041C88.9004 33.1837 87.3445 34.3673 85.7068 35.7551C84.1509 37.1429 82.7997 38.4898 81.6533 39.7959C80.5888 40.8571 79.5652 42.0408 78.5825 43.3469C77.6818 44.5714 76.781 45.8775 75.8802 47.2653C74.8157 48.8163 74.0787 50.1633 73.6693 51.3061C73.1779 52.5306 73.1779 53.3061 73.6693 53.6327Z"
    fill="#d9d9d9"
  />
  <path
    d="M125.824 61.2245C123.695 61.2245 122.63 59.6735 122.63 56.5714C122.63 53.3878 123.736 48.6939 125.947 42.4898C123.326 45.8367 120.706 48.8163 118.085 51.4286C115.547 53.9592 113.008 56.0408 110.47 57.6735C108.668 58.9796 107.031 59.6327 105.557 59.6327C103.591 59.6327 102.609 58.2857 102.609 55.5918C102.609 54.1224 102.854 52.7755 103.346 51.551C104.001 49.7551 104.942 47.6735 106.171 45.3061C107.481 42.9388 108.996 40.5714 110.715 38.2041C112.435 35.8367 114.196 33.8367 115.997 32.2041C116.652 31.7959 117.062 31.5918 117.226 31.5918C117.799 31.5918 118.085 31.9184 118.085 32.5714C118.085 32.8163 117.963 33.1429 117.717 33.551C116.98 34.3673 116.12 35.551 115.137 37.102C114.155 38.6531 113.213 40.3265 112.312 42.1224C111.412 43.9184 110.634 45.5918 109.978 47.1429C109.405 48.6122 109.119 49.7143 109.119 50.449C109.119 51.9184 109.774 52.6531 111.084 52.6531C111.657 52.6531 112.271 52.449 112.926 52.0408C115.956 50.1633 118.74 47.9184 121.279 45.3061C123.818 42.6122 126.192 38.9796 128.403 34.4082C129.14 33.9184 129.959 33.6735 130.86 33.6735C131.761 33.6735 132.498 33.9592 133.071 34.5306C133.726 35.102 134.054 35.8776 134.054 36.8571C134.054 37.5918 133.849 38.449 133.439 39.4286C133.357 39.7551 133.194 40.0816 132.948 40.4082C132.784 40.7347 132.58 41.102 132.334 41.5102C132.088 41.9184 131.883 42.3265 131.72 42.7347C131.556 43.0612 131.392 43.3469 131.228 43.5918C129.673 46.3673 128.444 48.6939 127.543 50.5714C126.725 52.449 126.315 54.0816 126.315 55.4694C126.315 57.102 127.052 57.9184 128.526 57.9184C129.836 57.9184 131.146 57.4286 132.457 56.449C133.276 55.8776 133.972 55.5918 134.545 55.5918C135.446 55.5918 135.241 56.1633 133.931 57.3061C132.702 58.3673 131.187 59.3469 129.386 60.2449C127.666 60.898 126.479 61.2245 125.824 61.2245Z"
    fill="#d9d9d9"
  />
  <path
    d="M144.525 59.0204C142.805 59.0204 141.29 58.5714 139.98 57.6735C137.851 56.0408 136.787 53.5918 136.787 50.3265C136.787 47.0612 137.933 43.5918 140.226 39.9184C142.519 36.2449 145.999 32.8571 150.666 29.7551C151.485 29.1837 152.591 28.898 153.983 28.898C155.784 28.898 157.381 29.3878 158.773 30.3673C160.247 31.3469 160.821 32.6122 160.493 34.1633C159.92 36.6939 158.651 38.9388 156.685 40.898C154.802 42.8571 152.55 44.6122 149.929 46.1633C147.391 47.6327 144.771 49.0612 142.068 50.449C141.986 50.6939 141.904 50.9388 141.823 51.1837C141.823 51.4286 141.823 51.6735 141.823 51.9184C141.823 53.0612 142.191 54.0816 142.928 54.9796C143.747 55.7959 144.852 56.2041 146.245 56.2041C147.309 56.2041 148.21 56.0408 148.947 55.7143C150.257 55.2245 151.322 54.7755 152.14 54.3673C153.041 53.9592 154.065 53.3469 155.211 52.5306C156.358 51.7143 157.914 50.4898 159.879 48.8571C160.78 48.2041 161.312 47.8776 161.476 47.8776C161.967 47.8776 162.131 48.2449 161.967 48.9796C161.148 50.2857 159.715 51.7143 157.668 53.2653C155.703 54.8163 153.492 56.1633 151.035 57.3061C148.66 58.449 146.49 59.0204 144.525 59.0204ZM142.805 47.1429C143.46 47.1429 144.812 46.4898 146.859 45.1837C148.906 43.8775 150.83 42.449 152.632 40.898C155.744 38.0408 157.299 35.8367 157.299 34.2857C157.299 33.8775 157.177 33.5102 156.931 33.1837C156.685 32.7755 156.317 32.5714 155.825 32.5714C154.27 32.5714 151.649 34.4082 147.964 38.0816C145.426 40.5306 143.706 43.551 142.805 47.1429Z"
    fill="#d9d9d9"
  />
  <path
    d="M162.242 65.7551C161.342 65.7551 160.564 65.4694 159.909 64.898C159.335 64.3265 159.09 63.6327 159.172 62.8163C159.335 59.4694 159.95 56.2449 161.014 53.1429C162.161 50.0408 163.798 46.3265 165.927 42C166.173 41.4286 166.378 40.9388 166.542 40.5306C166.787 40.0408 166.992 39.6327 167.156 39.3061C168.957 35.4694 170.8 31.7959 172.683 28.2857C174.567 24.7755 176.45 21.3469 178.333 18L180.053 14.9388C182.018 11.4286 183.738 8.61224 185.212 6.4898C186.686 4.28571 188.16 2.69388 189.634 1.71429C191.517 0.571429 192.664 0 193.073 0C193.728 0 194.383 0.571429 195.038 1.71429C195.448 2.53061 194.629 4.53061 192.582 7.71428C191.517 9.34694 190.166 11.3878 188.528 13.8367C186.973 16.2857 185.089 19.0612 182.878 22.1633C182.469 22.7347 181.773 23.7551 180.79 25.2245C179.889 26.6122 178.661 28.449 177.105 30.7347C175.549 33.0204 174.198 35.102 173.052 36.9796C171.905 38.7755 170.963 40.3673 170.226 41.7551C168.752 44.449 167.36 47.3469 166.05 50.449C164.74 53.4694 164.085 55.8367 164.085 57.551C164.085 59.102 164.699 59.8776 165.927 59.8776C167.893 59.8776 171.045 58.2041 175.385 54.8571C175.877 54.9388 176.122 55.1837 176.122 55.5918C176.122 55.9184 175.713 56.4898 174.894 57.3061C174.157 58.0408 173.215 58.8163 172.069 59.6327C171.004 60.5306 169.735 61.551 168.261 62.6939L166.296 64.1633C164.986 65.2245 163.634 65.7551 162.242 65.7551Z"
    fill="#d9d9d9"
  />
  <path
    d="M202.544 63.1837C200.66 63.1837 199.719 62.1633 199.719 60.1224C199.719 58.5714 200.128 56.9388 200.947 55.2245L209.668 36.2449C210.323 34.8571 211.224 33.0204 212.37 30.7347C213.517 28.3673 214.909 25.5102 216.546 22.1633C216.71 21.8367 216.874 21.4694 217.038 21.0612C217.283 20.6531 217.529 20.2449 217.775 19.8367C218.266 18.9388 218.757 17.9592 219.249 16.898L220.723 13.8367C222.279 10.5714 223.63 8 224.776 6.12245C226.005 4.16326 227.356 2.69388 228.83 1.71429C230.713 0.571429 231.9 0 232.392 0C232.965 0 233.579 0.571429 234.234 1.71429C234.234 1.79592 234.234 1.83673 234.234 1.83673C234.316 1.83673 234.357 1.87755 234.357 1.95918C234.357 2.44898 233.989 3.2653 233.252 4.40816C232.76 5.14286 232.064 6.16326 231.163 7.46939C230.345 8.69388 229.321 10.2041 228.093 12C223.589 18.449 219.74 24.2857 216.546 29.5102C213.435 34.7347 210.814 40 208.685 45.3061C210.732 43.5102 212.902 41.7143 215.195 39.9184C217.57 38.1224 219.576 36.7347 221.214 35.7551C223.507 34.449 225.513 33.7959 227.233 33.7959C229.853 33.7959 231.163 35.5102 231.163 38.9388C231.163 42.6939 230.058 46.1224 227.847 49.2245C225.636 52.2449 222.565 54.898 218.635 57.1837C214.786 59.3878 210.405 61.1837 205.492 62.5714C204.427 62.9796 203.444 63.1837 202.544 63.1837ZM206.843 58.7755C209.873 58.7755 212.902 57.7551 215.932 55.7143C218.962 53.7551 221.419 51.3878 223.302 48.6122C225.268 45.7551 226.25 43.2245 226.25 41.0204C226.25 39.6327 225.8 38.4898 224.899 37.5918C224.162 37.4286 222.729 37.9592 220.6 39.1837C218.471 40.3265 216.178 41.8775 213.721 43.8367C211.347 45.7143 209.218 47.6735 207.334 49.7143C205.696 54.6939 205.041 57.6735 205.369 58.6531L206.843 58.7755Z"
    fill="#d9d9d9"
  />
  <path
    d="M236.22 59.7551C233.026 59.7551 231.429 58.3265 231.429 55.4694C231.429 55.3061 231.429 55.0204 231.429 54.6122C231.511 54.2041 231.593 53.7143 231.675 53.1429C232.494 49.7959 234.132 46.5714 236.588 43.4694C239.127 40.2857 242.034 37.5102 245.309 35.1429C246.538 34.1633 248.503 33.6735 251.205 33.6735C252.761 33.6735 254.112 33.9184 255.259 34.4082C256.487 34.8163 257.347 35.4694 257.838 36.3673C258.329 37.1837 258.575 38.1224 258.575 39.1837C258.575 39.3469 258.534 39.5918 258.452 39.9184C258.452 40.2449 258.411 40.6122 258.329 41.0204C258.493 40.9388 258.739 40.898 259.066 40.898C259.476 40.898 259.967 40.8571 260.54 40.7755C261.114 40.6939 261.646 40.6122 262.137 40.5306C262.71 40.449 263.284 40.4082 263.857 40.4082H264.348C265.249 40.4082 265.331 40.7755 264.594 41.5102C263.939 42.1633 263.038 42.5714 261.892 42.7347L257.715 43.2245C256.896 45.5102 255.463 47.7959 253.416 50.0816C251.451 52.3673 249.24 54.3673 246.783 56.0816C244.408 57.7143 242.157 58.7755 240.027 59.2653C238.799 59.5918 237.53 59.7551 236.22 59.7551ZM251.942 41.5102C252.433 41.5102 253.007 41.5102 253.662 41.5102C254.399 41.4286 255.218 41.3469 256.118 41.2653C256.2 41.102 256.241 40.7347 256.241 40.1633C256.241 38.6939 255.627 37.6735 254.399 37.102C253.744 36.6939 252.925 36.4898 251.942 36.4898C250.714 36.4898 249.445 36.898 248.134 37.7143C246.906 38.449 245.596 39.4286 244.204 40.6531C245.923 41.2245 248.503 41.5102 251.942 41.5102ZM239.905 55.4694C240.724 55.4694 241.87 55.102 243.344 54.3673C244.9 53.551 246.497 52.4898 248.134 51.1837C249.772 49.8775 251.246 48.4898 252.556 47.0204C252.966 46.6122 253.375 46.1224 253.785 45.551C254.194 44.898 254.644 44.2449 255.136 43.5918L252.188 43.9592C247.602 44.6122 243.508 44.9796 239.905 45.0612C238.103 48 236.998 50.449 236.588 52.4082C236.506 53.4694 236.793 54.2449 237.448 54.7347C238.103 55.2245 238.922 55.4694 239.905 55.4694Z"
    fill="#d9d9d9"
  />
  <path
    d="M260.949 84C259.148 84 257.674 83.1429 256.527 81.4286C255.299 79.7959 254.685 77.9184 254.685 75.7959C254.685 74.0816 254.93 72.8163 255.422 72C256.077 71.102 256.691 70.6531 257.264 70.6531C257.919 70.6531 258.247 71.0204 258.247 71.7551C258.247 72.4082 258.001 73.0612 257.51 73.7143C257.182 74.1225 257.019 74.6531 257.019 75.3061C257.019 76.5306 257.428 77.7551 258.247 78.9796C259.066 80.2041 260.048 80.8163 261.195 80.8163C261.359 80.8163 261.522 80.7755 261.686 80.6939C261.85 80.6939 262.055 80.6531 262.3 80.5714C266.149 79.102 269.67 76.0408 272.864 71.3878C276.057 66.6531 278.678 61.4694 280.725 55.8367C282.772 50.1224 284.287 44.8571 285.27 40.0408L284.779 39.9184C284.533 39.7551 284.164 39.9592 283.673 40.5306C283.182 41.0204 282.69 41.5918 282.199 42.2449C281.708 42.8163 281.38 43.2245 281.216 43.4694C280.971 43.7959 280.316 44.5306 279.251 45.6735C278.268 46.7347 277.081 47.9592 275.689 49.3469C274.297 50.6531 272.905 51.9592 271.513 53.2653C270.121 54.5714 268.933 55.6327 267.951 56.449C266.722 57.5102 265.207 58.0408 263.406 58.0408C262.914 58.0408 262.423 57.9592 261.932 57.7959C261.031 57.3061 260.581 56.5306 260.581 55.4694C260.581 54.0816 261.4 51.9592 263.037 49.102C264.266 46.9796 266.108 44.3265 268.565 41.1429C271.021 37.8776 273.724 35.102 276.672 32.8163C278.801 31.102 281.012 30 283.305 29.5102C283.714 29.4286 284.123 29.3878 284.533 29.3878C284.942 29.3061 285.352 29.2245 285.761 29.1429C286.171 29.1429 286.539 29.1429 286.867 29.1429C287.194 29.1429 287.522 29.102 287.849 29.0204C287.931 29.0204 288.545 28.9796 289.692 28.898C290.92 28.7347 291.698 28.3265 292.026 27.6735L292.394 27.551C292.722 27.551 293.049 27.7143 293.377 28.0408C293.622 28.2857 293.745 28.7755 293.745 29.5102C293.745 29.7551 293.704 30.0816 293.622 30.4898C293.541 30.8163 293.5 31.2245 293.5 31.7143V31.8367C293.5 34.8571 292.926 38 291.78 41.2653C290.633 44.449 289.405 47.7143 288.095 51.0612C285.393 57.8367 281.953 64.1224 277.777 69.9184C273.683 75.7143 269.138 80.0816 264.143 83.0204C263.078 83.6735 262.014 84 260.949 84ZM264.634 53.6327C264.962 53.7959 265.207 53.8776 265.371 53.8776C265.781 53.8776 266.395 53.6735 267.214 53.2653C267.787 52.9388 268.36 52.5306 268.933 52.0408C269.588 51.551 270.325 50.9796 271.144 50.3265C271.717 49.9184 272.373 49.3469 273.109 48.6122C273.846 47.8775 274.706 47.0204 275.689 46.0408L278.023 43.8367C279.169 42.6939 280.398 41.3469 281.708 39.7959C283.018 38.2449 284.123 36.7347 285.024 35.2653C285.925 33.7959 286.375 32.6531 286.375 31.8367C286.375 31.102 285.925 30.7347 285.024 30.7347C284.123 30.7347 282.895 31.2245 281.339 32.2041C279.865 33.1837 278.309 34.3673 276.672 35.7551C275.116 37.1429 273.765 38.4898 272.618 39.7959C271.554 40.8571 270.53 42.0408 269.547 43.3469C268.647 44.5714 267.746 45.8775 266.845 47.2653C265.781 48.8163 265.044 50.1633 264.634 51.3061C264.143 52.5306 264.143 53.3061 264.634 53.6327Z"
    fill="#d9d9d9"
  />
  <path
    d="M297.995 59.7551C294.802 59.7551 293.205 58.3265 293.205 55.4694C293.205 55.3061 293.205 55.0204 293.205 54.6122C293.287 54.2041 293.369 53.7143 293.451 53.1429C294.269 49.7959 295.907 46.5714 298.364 43.4694C300.902 40.2857 303.809 37.5102 307.085 35.1429C308.313 34.1633 310.279 33.6735 312.981 33.6735C314.537 33.6735 315.888 33.9184 317.034 34.4082C318.263 34.8163 319.122 35.4694 319.614 36.3673C320.105 37.1837 320.351 38.1224 320.351 39.1837C320.351 39.3469 320.31 39.5918 320.228 39.9184C320.228 40.2449 320.187 40.6122 320.105 41.0204C320.269 40.9388 320.515 40.898 320.842 40.898C321.252 40.898 321.743 40.8571 322.316 40.7755C322.889 40.6939 323.422 40.6122 323.913 40.5306C324.486 40.449 325.059 40.4082 325.633 40.4082H326.124C327.025 40.4082 327.107 40.7755 326.37 41.5102C325.714 42.1633 324.814 42.5714 323.667 42.7347L319.491 43.2245C318.672 45.5102 317.239 47.7959 315.192 50.0816C313.227 52.3673 311.016 54.3673 308.559 56.0816C306.184 57.7143 303.932 58.7755 301.803 59.2653C300.575 59.5918 299.306 59.7551 297.995 59.7551ZM313.718 41.5102C314.209 41.5102 314.782 41.5102 315.437 41.5102C316.174 41.4286 316.993 41.3469 317.894 41.2653C317.976 41.102 318.017 40.7347 318.017 40.1633C318.017 38.6939 317.403 37.6735 316.174 37.102C315.519 36.6939 314.701 36.4898 313.718 36.4898C312.49 36.4898 311.22 36.898 309.91 37.7143C308.682 38.449 307.372 39.4286 305.979 40.6531C307.699 41.2245 310.279 41.5102 313.718 41.5102ZM301.68 55.4694C302.499 55.4694 303.646 55.102 305.12 54.3673C306.676 53.551 308.272 52.4898 309.91 51.1837C311.548 49.8775 313.022 48.4898 314.332 47.0204C314.741 46.6122 315.151 46.1224 315.56 45.551C315.97 44.898 316.42 44.2449 316.911 43.5918L313.964 43.9592C309.378 44.6122 305.283 44.9796 301.68 45.0612C299.879 48 298.773 50.449 298.364 52.4082C298.282 53.4694 298.569 54.2449 299.224 54.7347C299.879 55.2245 300.698 55.4694 301.68 55.4694Z"
    fill="#d9d9d9"
  />
  <path
    d="M324.199 69.0612C323.789 69.0612 323.585 68.6939 323.585 67.9592C323.585 67.7959 323.585 67.551 323.585 67.2245C323.667 66.9796 323.748 66.6939 323.83 66.3673L329.112 53.1429L335.377 37.7143C334.394 37.6327 332.961 37.6735 331.077 37.8367C329.194 37.9184 327.597 38.0816 326.287 38.3265C325.796 38.4082 325.386 38.4898 325.059 38.5714C324.813 38.5714 324.608 38.5714 324.445 38.5714C323.789 38.5714 323.339 38.2857 323.093 37.7143C323.175 37.2245 323.626 36.7755 324.445 36.3673C324.854 36.2041 325.345 36.0816 325.918 36C326.492 35.8367 327.188 35.6735 328.007 35.5102C328.907 35.3469 329.685 35.2245 330.34 35.1429C331.077 35.0612 331.61 34.9796 331.937 34.898C332.347 34.8163 332.756 34.7347 333.166 34.6531C333.575 34.5714 334.066 34.4898 334.64 34.4082C335.131 34.3265 335.663 34.2449 336.236 34.1633C336.81 34.0816 337.424 33.9592 338.079 33.7959C338.734 32.898 339.717 31.3061 341.027 29.0204C342.337 26.7347 344.016 23.7143 346.063 19.9592C347.701 16.9388 349.011 14.5714 349.993 12.8571C351.058 11.0612 351.795 9.87755 352.204 9.30612C352.941 8.32653 353.801 7.83674 354.784 7.83674C355.275 7.83674 355.521 8.04082 355.521 8.44898C355.521 8.53061 355.316 9.06122 354.907 10.0408C354.415 10.8571 353.597 12.3673 352.45 14.5714C351.304 16.7755 350.075 19.1837 348.765 21.7959C347.455 24.4082 346.268 26.8571 345.203 29.1429C344.139 31.4286 343.402 33.102 342.992 34.1633C343.402 34.0816 343.852 34.0408 344.343 34.0408C344.916 34.0408 345.613 34.0408 346.431 34.0408C347.332 34.0408 348.151 34.0816 348.888 34.1633C349.707 34.1633 350.403 34.2041 350.976 34.2857C352.123 34.5306 352.696 34.8571 352.696 35.2653C352.696 35.4286 352.327 35.7143 351.59 36.1224C351.181 36.2857 350.403 36.449 349.257 36.6122C348.11 36.7755 346.595 36.9388 344.712 37.102C344.22 37.102 343.688 37.1429 343.115 37.2245C342.542 37.2245 341.928 37.2653 341.272 37.3469C338.816 41.3469 335.458 48 331.2 57.3061C329.644 60.4082 328.457 62.8163 327.638 64.5306C326.819 66.2449 326.328 67.2653 326.164 67.5918C325.427 68.5714 324.772 69.0612 324.199 69.0612Z"
    fill="#d9d9d9"
  />
  <path
    d="M367.208 60.9796C367.044 60.9796 366.881 60.9388 366.717 60.8571C366.553 60.8571 366.389 60.8163 366.226 60.7347C365.079 60.1633 364.342 59.3469 364.015 58.2857C363.687 57.2245 363.605 55.8776 363.769 54.2449C363.933 53.5918 364.096 52.449 364.26 50.8163C364.506 49.1837 364.792 47.8776 365.12 46.898L358.856 52.898L355.416 56.2041C353.042 58.5714 351.076 59.7551 349.52 59.7551C348.865 59.7551 348.333 59.5102 347.924 59.0204C347.187 58.1224 346.818 57.0204 346.818 55.7143C346.818 54 347.268 52.1633 348.169 50.2041C349.07 48.2449 350.135 46.3673 351.363 44.5714C352.591 42.6939 353.697 41.1429 354.679 39.9184C357.136 36.898 359.511 34.5306 361.804 32.8163C364.178 31.102 366.635 30.2449 369.173 30.2449C370.566 30.2449 371.917 30.4898 373.227 30.9796C374.619 31.4694 375.888 32.2857 377.035 33.4286L377.158 33.551C377.158 33.7959 376.953 34.0408 376.543 34.2857C376.38 34.449 376.216 34.5714 376.052 34.6531C375.97 34.7347 375.888 34.8163 375.806 34.898C374.824 35.8775 373.718 37.5102 372.49 39.7959C371.262 42.0816 370.197 44.4898 369.296 47.0204C368.396 49.4694 367.945 51.5918 367.945 53.3878C367.945 55.0204 368.355 56.1224 369.173 56.6939C369.583 56.9388 370.033 57.0612 370.525 57.0612C371.589 57.0612 373.063 56.4082 374.947 55.102C375.028 55.0204 375.192 54.898 375.438 54.7347C375.765 54.4898 376.216 54.1633 376.789 53.7551C377.444 53.2653 377.976 53.0204 378.386 53.0204C378.795 53.0204 379 53.1837 379 53.5102C379 54 378.672 54.5714 378.017 55.2245C377.526 55.6327 376.953 56.0816 376.298 56.5714C375.724 57.0612 375.028 57.551 374.21 58.0408C372.981 58.9388 371.712 59.6327 370.402 60.1224C369.092 60.6939 368.027 60.9796 367.208 60.9796ZM353.328 53.1429C355.048 53.1429 358.241 50.6122 362.909 45.551C364.137 44.1633 365.243 42.8571 366.226 41.6327C367.208 40.3265 368.109 39.0612 368.928 37.8367C370.402 35.4694 370.893 33.8367 370.402 32.9388C370.156 32.449 369.665 32.2041 368.928 32.2041C368.027 32.2041 366.799 32.6939 365.243 33.6735C363.687 34.5714 362.09 35.7551 360.452 37.2245C358.897 38.6939 357.464 40.1633 356.153 41.6327C355.253 42.7755 354.352 44.3673 353.451 46.4082C352.55 48.449 352.1 50.1224 352.1 51.4286C352.1 52.5714 352.509 53.1429 353.328 53.1429Z"
    fill="#d9d9d9"
  />
</svg>
